<mxfile host="app.diagrams.net" modified="2022-08-19T15:46:52.969Z" agent="5.0 (Windows NT 10.0; Win64; x64) AppleWebKit/537.36 (KHTML, like Gecko) Chrome/104.0.0.0 Safari/537.36" etag="Zg3CSeTEln-EmkoB1YpT" version="20.2.4" type="github">
  <diagram id="kgpKYQtTHZ0yAKxKKP6v" name="Page-1">
    <mxGraphModel dx="2512" dy="762" grid="1" gridSize="10" guides="1" tooltips="1" connect="1" arrows="1" fold="1" page="1" pageScale="1" pageWidth="850" pageHeight="1100" math="0" shadow="0">
      <root>
        <mxCell id="0" />
        <mxCell id="1" parent="0" />
        <mxCell id="bNNBikwXs6dmu_kMdXJ--18" value="Environmental&amp;nbsp;&lt;br&gt;Sensor" style="rounded=0;whiteSpace=wrap;html=1;" parent="1" vertex="1">
          <mxGeometry x="60" y="30" width="120" height="60" as="geometry" />
        </mxCell>
        <mxCell id="bNNBikwXs6dmu_kMdXJ--19" value="Deckbox" style="rounded=0;whiteSpace=wrap;html=1;" parent="1" vertex="1">
          <mxGeometry x="365" y="30" width="120" height="60" as="geometry" />
        </mxCell>
        <mxCell id="bNNBikwXs6dmu_kMdXJ--20" value="" style="endArrow=classic;html=1;rounded=0;" parent="1" source="bNNBikwXs6dmu_kMdXJ--18" target="bNNBikwXs6dmu_kMdXJ--19" edge="1">
          <mxGeometry relative="1" as="geometry">
            <mxPoint x="220" y="80" as="sourcePoint" />
            <mxPoint x="320" y="80" as="targetPoint" />
          </mxGeometry>
        </mxCell>
        <mxCell id="bNNBikwXs6dmu_kMdXJ--21" value="Bluetooth Transmission" style="edgeLabel;resizable=0;html=1;align=center;verticalAlign=middle;" parent="bNNBikwXs6dmu_kMdXJ--20" connectable="0" vertex="1">
          <mxGeometry relative="1" as="geometry" />
        </mxCell>
        <mxCell id="bNNBikwXs6dmu_kMdXJ--22" value="Fishing Vessel" style="swimlane;" parent="1" vertex="1">
          <mxGeometry x="40" width="480" height="120" as="geometry" />
        </mxCell>
        <mxCell id="bNNBikwXs6dmu_kMdXJ--23" value="API" style="rounded=0;whiteSpace=wrap;html=1;" parent="1" vertex="1">
          <mxGeometry x="550" y="200" width="120" height="60" as="geometry" />
        </mxCell>
        <mxCell id="bNNBikwXs6dmu_kMdXJ--24" value="" style="endArrow=classic;html=1;rounded=0;" parent="1" source="bNNBikwXs6dmu_kMdXJ--19" target="bNNBikwXs6dmu_kMdXJ--23" edge="1">
          <mxGeometry relative="1" as="geometry">
            <mxPoint x="370" y="280" as="sourcePoint" />
            <mxPoint x="470" y="280" as="targetPoint" />
          </mxGeometry>
        </mxCell>
        <mxCell id="bNNBikwXs6dmu_kMdXJ--25" value="Satellite Transmission" style="edgeLabel;resizable=0;html=1;align=center;verticalAlign=middle;" parent="bNNBikwXs6dmu_kMdXJ--24" connectable="0" vertex="1">
          <mxGeometry relative="1" as="geometry" />
        </mxCell>
        <mxCell id="bNNBikwXs6dmu_kMdXJ--32" value="TOWS" style="rounded=0;whiteSpace=wrap;html=1;fillColor=#E6E6E6;" parent="1" vertex="1">
          <mxGeometry x="190" y="400" width="120" height="60" as="geometry" />
        </mxCell>
        <mxCell id="bNNBikwXs6dmu_kMdXJ--33" value="TOWS_SUMMARY" style="rounded=0;whiteSpace=wrap;html=1;fillColor=#E6E6E6;" parent="1" vertex="1">
          <mxGeometry x="330" y="400" width="120" height="60" as="geometry" />
        </mxCell>
        <mxCell id="bNNBikwXs6dmu_kMdXJ--34" value="TOWS_SENSOR" style="rounded=0;whiteSpace=wrap;html=1;fillColor=#E6E6E6;" parent="1" vertex="1">
          <mxGeometry x="480" y="400" width="120" height="60" as="geometry" />
        </mxCell>
        <mxCell id="bNNBikwXs6dmu_kMdXJ--36" value="" style="endArrow=classic;html=1;rounded=0;" parent="1" source="bNNBikwXs6dmu_kMdXJ--23" target="bNNBikwXs6dmu_kMdXJ--32" edge="1">
          <mxGeometry relative="1" as="geometry">
            <mxPoint x="380" y="360" as="sourcePoint" />
            <mxPoint x="240" y="370" as="targetPoint" />
          </mxGeometry>
        </mxCell>
        <mxCell id="bNNBikwXs6dmu_kMdXJ--37" value="INSERT" style="edgeLabel;resizable=0;html=1;align=center;verticalAlign=middle;" parent="bNNBikwXs6dmu_kMdXJ--36" connectable="0" vertex="1">
          <mxGeometry relative="1" as="geometry" />
        </mxCell>
        <mxCell id="bNNBikwXs6dmu_kMdXJ--38" value="" style="endArrow=classic;html=1;rounded=0;" parent="1" source="bNNBikwXs6dmu_kMdXJ--23" target="bNNBikwXs6dmu_kMdXJ--33" edge="1">
          <mxGeometry relative="1" as="geometry">
            <mxPoint x="394.61538461538476" y="340" as="sourcePoint" />
            <mxPoint x="300.3846153846155" y="410" as="targetPoint" />
          </mxGeometry>
        </mxCell>
        <mxCell id="bNNBikwXs6dmu_kMdXJ--39" value="INSERT" style="edgeLabel;resizable=0;html=1;align=center;verticalAlign=middle;" parent="bNNBikwXs6dmu_kMdXJ--38" connectable="0" vertex="1">
          <mxGeometry relative="1" as="geometry" />
        </mxCell>
        <mxCell id="bNNBikwXs6dmu_kMdXJ--40" value="" style="endArrow=classic;html=1;rounded=0;" parent="1" source="bNNBikwXs6dmu_kMdXJ--23" target="bNNBikwXs6dmu_kMdXJ--34" edge="1">
          <mxGeometry relative="1" as="geometry">
            <mxPoint x="426.9230769230769" y="340" as="sourcePoint" />
            <mxPoint x="408.0769230769231" y="410" as="targetPoint" />
          </mxGeometry>
        </mxCell>
        <mxCell id="bNNBikwXs6dmu_kMdXJ--41" value="INSERT" style="edgeLabel;resizable=0;html=1;align=center;verticalAlign=middle;" parent="bNNBikwXs6dmu_kMdXJ--40" connectable="0" vertex="1">
          <mxGeometry relative="1" as="geometry" />
        </mxCell>
        <mxCell id="bNNBikwXs6dmu_kMdXJ--47" value="emolt.tmp" style="rounded=0;whiteSpace=wrap;html=1;fillColor=#CDA2BE;" parent="1" vertex="1">
          <mxGeometry x="230" y="1020" width="120" height="60" as="geometry" />
        </mxCell>
        <mxCell id="bNNBikwXs6dmu_kMdXJ--48" value="" style="endArrow=classic;html=1;rounded=0;" parent="1" source="bNNBikwXs6dmu_kMdXJ--35" target="bNNBikwXs6dmu_kMdXJ--47" edge="1">
          <mxGeometry relative="1" as="geometry">
            <mxPoint x="277.69615384615383" y="600" as="sourcePoint" />
            <mxPoint x="310.0038461538462" y="670" as="targetPoint" />
          </mxGeometry>
        </mxCell>
        <mxCell id="bNNBikwXs6dmu_kMdXJ--49" value="OUTFILE" style="edgeLabel;resizable=0;html=1;align=center;verticalAlign=middle;" parent="bNNBikwXs6dmu_kMdXJ--48" connectable="0" vertex="1">
          <mxGeometry relative="1" as="geometry" />
        </mxCell>
        <mxCell id="bNNBikwXs6dmu_kMdXJ--51" value="emolt.dat" style="rounded=0;whiteSpace=wrap;html=1;fillColor=#CDA2BE;" parent="1" vertex="1">
          <mxGeometry x="230" y="1240" width="120" height="60" as="geometry" />
        </mxCell>
        <mxCell id="bNNBikwXs6dmu_kMdXJ--52" value="" style="endArrow=classic;html=1;rounded=0;" parent="1" source="bNNBikwXs6dmu_kMdXJ--47" target="bNNBikwXs6dmu_kMdXJ--51" edge="1">
          <mxGeometry relative="1" as="geometry">
            <mxPoint x="425" y="750" as="sourcePoint" />
            <mxPoint x="425" y="840" as="targetPoint" />
          </mxGeometry>
        </mxCell>
        <mxCell id="bNNBikwXs6dmu_kMdXJ--53" value="mv" style="edgeLabel;resizable=0;html=1;align=center;verticalAlign=middle;" parent="bNNBikwXs6dmu_kMdXJ--52" connectable="0" vertex="1">
          <mxGeometry relative="1" as="geometry" />
        </mxCell>
        <mxCell id="bNNBikwXs6dmu_kMdXJ--55" value="" style="endArrow=none;dashed=1;html=1;dashPattern=1 3;strokeWidth=2;rounded=0;" parent="1" source="bNNBikwXs6dmu_kMdXJ--54" target="bNNBikwXs6dmu_kMdXJ--32" edge="1">
          <mxGeometry width="50" height="50" relative="1" as="geometry">
            <mxPoint x="400" y="700" as="sourcePoint" />
            <mxPoint x="450" y="650" as="targetPoint" />
          </mxGeometry>
        </mxCell>
        <mxCell id="bNNBikwXs6dmu_kMdXJ--56" value="" style="endArrow=none;dashed=1;html=1;dashPattern=1 3;strokeWidth=2;rounded=0;" parent="1" source="bNNBikwXs6dmu_kMdXJ--47" target="bNNBikwXs6dmu_kMdXJ--54" edge="1">
          <mxGeometry width="50" height="50" relative="1" as="geometry">
            <mxPoint x="148" y="560" as="sourcePoint" />
            <mxPoint x="232" y="470" as="targetPoint" />
          </mxGeometry>
        </mxCell>
        <mxCell id="bNNBikwXs6dmu_kMdXJ--57" value="inotifywait" style="shape=process;whiteSpace=wrap;html=1;backgroundOutline=1;fillColor=#CCFFCC;" parent="1" vertex="1">
          <mxGeometry x="30" y="1030" width="120" height="60" as="geometry" />
        </mxCell>
        <mxCell id="bNNBikwXs6dmu_kMdXJ--58" value="" style="endArrow=none;dashed=1;html=1;dashPattern=1 3;strokeWidth=2;rounded=0;" parent="1" source="bNNBikwXs6dmu_kMdXJ--57" target="bNNBikwXs6dmu_kMdXJ--47" edge="1">
          <mxGeometry width="50" height="50" relative="1" as="geometry">
            <mxPoint x="400" y="700" as="sourcePoint" />
            <mxPoint x="450" y="650" as="targetPoint" />
          </mxGeometry>
        </mxCell>
        <mxCell id="bNNBikwXs6dmu_kMdXJ--59" value="" style="endArrow=none;dashed=1;html=1;dashPattern=1 3;strokeWidth=2;rounded=0;" parent="1" source="bNNBikwXs6dmu_kMdXJ--51" target="bNNBikwXs6dmu_kMdXJ--57" edge="1">
          <mxGeometry width="50" height="50" relative="1" as="geometry">
            <mxPoint x="170" y="890" as="sourcePoint" />
            <mxPoint x="250" y="862" as="targetPoint" />
          </mxGeometry>
        </mxCell>
        <mxCell id="bNNBikwXs6dmu_kMdXJ--60" value="MySQL Database" style="swimlane;horizontal=0;" parent="1" vertex="1">
          <mxGeometry x="-80" y="380" width="1630" height="580" as="geometry" />
        </mxCell>
        <mxCell id="7BSBs11hJIYMO0QQD_g5-1" value="vessel_sat" style="rounded=0;whiteSpace=wrap;html=1;fillColor=#FFCE9F;" parent="bNNBikwXs6dmu_kMdXJ--60" vertex="1">
          <mxGeometry x="780" y="400" width="120" height="60" as="geometry" />
        </mxCell>
        <mxCell id="bNNBikwXs6dmu_kMdXJ--35" value="emolt_dat" style="rounded=0;whiteSpace=wrap;html=1;fillColor=#FFCE9F;" parent="bNNBikwXs6dmu_kMdXJ--60" vertex="1">
          <mxGeometry x="370" y="420" width="120" height="60" as="geometry" />
        </mxCell>
        <mxCell id="bNNBikwXs6dmu_kMdXJ--54" value="proc_emolt_dat_refresh" style="shape=process;whiteSpace=wrap;html=1;backgroundOutline=1;fillColor=#CCFFCC;" parent="bNNBikwXs6dmu_kMdXJ--60" vertex="1">
          <mxGeometry x="90" y="420" width="180" height="60" as="geometry" />
        </mxCell>
        <mxCell id="7BSBs11hJIYMO0QQD_g5-2" value="zz_odn_temp" style="rounded=0;whiteSpace=wrap;html=1;fillColor=#FFCE9F;" parent="bNNBikwXs6dmu_kMdXJ--60" vertex="1">
          <mxGeometry x="310" y="250" width="120" height="60" as="geometry" />
        </mxCell>
        <mxCell id="7BSBs11hJIYMO0QQD_g5-3" value="zz_odn_depth" style="rounded=0;whiteSpace=wrap;html=1;fillColor=#FFCE9F;" parent="bNNBikwXs6dmu_kMdXJ--60" vertex="1">
          <mxGeometry x="560" y="250" width="120" height="60" as="geometry" />
        </mxCell>
        <mxCell id="bNNBikwXs6dmu_kMdXJ--44" value="" style="endArrow=classic;html=1;rounded=0;" parent="bNNBikwXs6dmu_kMdXJ--60" source="7BSBs11hJIYMO0QQD_g5-1" target="bNNBikwXs6dmu_kMdXJ--35" edge="1">
          <mxGeometry relative="1" as="geometry">
            <mxPoint x="750" y="320" as="sourcePoint" />
            <mxPoint x="356.1538461538462" y="190" as="targetPoint" />
          </mxGeometry>
        </mxCell>
        <mxCell id="7BSBs11hJIYMO0QQD_g5-4" value="" style="endArrow=classic;html=1;rounded=0;" parent="bNNBikwXs6dmu_kMdXJ--60" source="7BSBs11hJIYMO0QQD_g5-2" target="bNNBikwXs6dmu_kMdXJ--35" edge="1">
          <mxGeometry relative="1" as="geometry">
            <mxPoint x="650.004347826087" y="240" as="sourcePoint" />
            <mxPoint x="657.395652173913" y="410" as="targetPoint" />
          </mxGeometry>
        </mxCell>
        <mxCell id="7BSBs11hJIYMO0QQD_g5-5" value="UPDATE" style="edgeLabel;resizable=0;html=1;align=center;verticalAlign=middle;" parent="7BSBs11hJIYMO0QQD_g5-4" connectable="0" vertex="1">
          <mxGeometry relative="1" as="geometry" />
        </mxCell>
        <mxCell id="7BSBs11hJIYMO0QQD_g5-6" value="" style="endArrow=classic;html=1;rounded=0;" parent="bNNBikwXs6dmu_kMdXJ--60" source="7BSBs11hJIYMO0QQD_g5-3" target="bNNBikwXs6dmu_kMdXJ--35" edge="1">
          <mxGeometry relative="1" as="geometry">
            <mxPoint x="441.304347826087" y="270" as="sourcePoint" />
            <mxPoint x="448.695652173913" y="440" as="targetPoint" />
          </mxGeometry>
        </mxCell>
        <mxCell id="7BSBs11hJIYMO0QQD_g5-7" value="UPDATE" style="edgeLabel;resizable=0;html=1;align=center;verticalAlign=middle;" parent="7BSBs11hJIYMO0QQD_g5-6" connectable="0" vertex="1">
          <mxGeometry relative="1" as="geometry" />
        </mxCell>
        <mxCell id="7BSBs11hJIYMO0QQD_g5-16" value="zz_vessel_visits" style="rounded=0;whiteSpace=wrap;html=1;strokeColor=#000000;fillColor=#FFCE9F;" parent="bNNBikwXs6dmu_kMdXJ--60" vertex="1">
          <mxGeometry x="1100" y="400" width="120" height="60" as="geometry" />
        </mxCell>
        <mxCell id="7BSBs11hJIYMO0QQD_g5-17" value="zz_installed_gear_and_addresses" style="rounded=0;whiteSpace=wrap;html=1;strokeColor=#000000;fillColor=#FFCE9F;" parent="bNNBikwXs6dmu_kMdXJ--60" vertex="1">
          <mxGeometry x="840" y="140" width="220" height="60" as="geometry" />
        </mxCell>
        <mxCell id="7BSBs11hJIYMO0QQD_g5-18" value="" style="endArrow=classic;html=1;rounded=0;" parent="bNNBikwXs6dmu_kMdXJ--60" source="7BSBs11hJIYMO0QQD_g5-16" target="7BSBs11hJIYMO0QQD_g5-1" edge="1">
          <mxGeometry width="50" height="50" relative="1" as="geometry">
            <mxPoint x="550" y="100" as="sourcePoint" />
            <mxPoint x="600" y="50" as="targetPoint" />
          </mxGeometry>
        </mxCell>
        <mxCell id="7BSBs11hJIYMO0QQD_g5-19" value="" style="endArrow=classic;html=1;rounded=0;" parent="bNNBikwXs6dmu_kMdXJ--60" source="7BSBs11hJIYMO0QQD_g5-17" target="7BSBs11hJIYMO0QQD_g5-1" edge="1">
          <mxGeometry width="50" height="50" relative="1" as="geometry">
            <mxPoint x="550" y="100" as="sourcePoint" />
            <mxPoint x="600" y="50" as="targetPoint" />
          </mxGeometry>
        </mxCell>
        <mxCell id="7BSBs11hJIYMO0QQD_g5-20" value="VESSEL_VISIT_LOG" style="rounded=0;whiteSpace=wrap;html=1;strokeColor=#000000;fillColor=#E6E6E6;" parent="bNNBikwXs6dmu_kMdXJ--60" vertex="1">
          <mxGeometry x="1070" y="240" width="120" height="60" as="geometry" />
        </mxCell>
        <mxCell id="7BSBs11hJIYMO0QQD_g5-21" value="VESSELS" style="rounded=0;whiteSpace=wrap;html=1;strokeColor=#000000;fillColor=#E6E6E6;" parent="bNNBikwXs6dmu_kMdXJ--60" vertex="1">
          <mxGeometry x="1270" y="320" width="120" height="60" as="geometry" />
        </mxCell>
        <mxCell id="7BSBs11hJIYMO0QQD_g5-22" value="EQUIPMENT_CHANGE" style="rounded=0;whiteSpace=wrap;html=1;strokeColor=#000000;fillColor=#E6E6E6;" parent="bNNBikwXs6dmu_kMdXJ--60" vertex="1">
          <mxGeometry x="1210" y="240" width="150" height="60" as="geometry" />
        </mxCell>
        <mxCell id="7BSBs11hJIYMO0QQD_g5-23" value="" style="endArrow=classic;html=1;rounded=0;" parent="bNNBikwXs6dmu_kMdXJ--60" source="7BSBs11hJIYMO0QQD_g5-20" target="7BSBs11hJIYMO0QQD_g5-16" edge="1">
          <mxGeometry width="50" height="50" relative="1" as="geometry">
            <mxPoint x="800" y="520" as="sourcePoint" />
            <mxPoint x="850" y="470" as="targetPoint" />
          </mxGeometry>
        </mxCell>
        <mxCell id="7BSBs11hJIYMO0QQD_g5-24" value="" style="endArrow=classic;html=1;rounded=0;" parent="bNNBikwXs6dmu_kMdXJ--60" source="7BSBs11hJIYMO0QQD_g5-22" target="7BSBs11hJIYMO0QQD_g5-16" edge="1">
          <mxGeometry width="50" height="50" relative="1" as="geometry">
            <mxPoint x="1035.217391304348" y="310" as="sourcePoint" />
            <mxPoint x="1064.782608695652" y="480" as="targetPoint" />
          </mxGeometry>
        </mxCell>
        <mxCell id="7BSBs11hJIYMO0QQD_g5-25" value="" style="endArrow=classic;html=1;rounded=0;" parent="bNNBikwXs6dmu_kMdXJ--60" source="7BSBs11hJIYMO0QQD_g5-21" target="7BSBs11hJIYMO0QQD_g5-16" edge="1">
          <mxGeometry width="50" height="50" relative="1" as="geometry">
            <mxPoint x="1170" y="310" as="sourcePoint" />
            <mxPoint x="1085" y="480" as="targetPoint" />
          </mxGeometry>
        </mxCell>
        <mxCell id="7BSBs11hJIYMO0QQD_g5-26" value="zz_all_hardware_addresses" style="rounded=0;whiteSpace=wrap;html=1;strokeColor=#000000;fillColor=#FFCE9F;" parent="bNNBikwXs6dmu_kMdXJ--60" vertex="1">
          <mxGeometry x="1150" y="150" width="160" height="60" as="geometry" />
        </mxCell>
        <mxCell id="7BSBs11hJIYMO0QQD_g5-28" value="HARDWARE_ADDRESSES" style="rounded=0;whiteSpace=wrap;html=1;strokeColor=#000000;fillColor=#E6E6E6;" parent="bNNBikwXs6dmu_kMdXJ--60" vertex="1">
          <mxGeometry x="1130" y="20" width="160" height="60" as="geometry" />
        </mxCell>
        <mxCell id="7BSBs11hJIYMO0QQD_g5-30" value="" style="endArrow=classic;html=1;rounded=0;" parent="bNNBikwXs6dmu_kMdXJ--60" source="7BSBs11hJIYMO0QQD_g5-28" target="7BSBs11hJIYMO0QQD_g5-26" edge="1">
          <mxGeometry width="50" height="50" relative="1" as="geometry">
            <mxPoint x="1345.4545454545455" y="110" as="sourcePoint" />
            <mxPoint x="1354.5454545454545" y="160" as="targetPoint" />
          </mxGeometry>
        </mxCell>
        <mxCell id="7BSBs11hJIYMO0QQD_g5-32" value="" style="endArrow=classic;html=1;rounded=0;" parent="bNNBikwXs6dmu_kMdXJ--60" source="7BSBs11hJIYMO0QQD_g5-26" target="7BSBs11hJIYMO0QQD_g5-17" edge="1">
          <mxGeometry width="50" height="50" relative="1" as="geometry">
            <mxPoint x="1110" y="310" as="sourcePoint" />
            <mxPoint x="1160" y="260" as="targetPoint" />
          </mxGeometry>
        </mxCell>
        <mxCell id="7BSBs11hJIYMO0QQD_g5-27" value="EQUIPMENT_INVENTORY" style="rounded=0;whiteSpace=wrap;html=1;strokeColor=#000000;fillColor=#E6E6E6;" parent="bNNBikwXs6dmu_kMdXJ--60" vertex="1">
          <mxGeometry x="940" y="20" width="160" height="60" as="geometry" />
        </mxCell>
        <mxCell id="7BSBs11hJIYMO0QQD_g5-31" value="" style="endArrow=classic;html=1;rounded=0;" parent="bNNBikwXs6dmu_kMdXJ--60" source="7BSBs11hJIYMO0QQD_g5-27" target="7BSBs11hJIYMO0QQD_g5-17" edge="1">
          <mxGeometry width="50" height="50" relative="1" as="geometry">
            <mxPoint x="1110" y="310" as="sourcePoint" />
            <mxPoint x="1160" y="260" as="targetPoint" />
          </mxGeometry>
        </mxCell>
        <mxCell id="bNNBikwXs6dmu_kMdXJ--61" value="Filesystem" style="swimlane;horizontal=0;" parent="1" vertex="1">
          <mxGeometry x="-70" y="1000" width="750" height="130" as="geometry" />
        </mxCell>
        <mxCell id="bNNBikwXs6dmu_kMdXJ--62" value="Web Server" style="swimlane;horizontal=0;" parent="1" vertex="1">
          <mxGeometry x="-70" y="1190" width="750" height="130" as="geometry" />
        </mxCell>
        <mxCell id="7BSBs11hJIYMO0QQD_g5-8" value="" style="endArrow=classic;html=1;rounded=0;" parent="1" source="bNNBikwXs6dmu_kMdXJ--32" target="7BSBs11hJIYMO0QQD_g5-2" edge="1">
          <mxGeometry relative="1" as="geometry">
            <mxPoint x="371.304347826087" y="650" as="sourcePoint" />
            <mxPoint x="378.695652173913" y="820" as="targetPoint" />
          </mxGeometry>
        </mxCell>
        <mxCell id="7BSBs11hJIYMO0QQD_g5-9" value="UPDATE" style="edgeLabel;resizable=0;html=1;align=center;verticalAlign=middle;" parent="7BSBs11hJIYMO0QQD_g5-8" connectable="0" vertex="1">
          <mxGeometry relative="1" as="geometry" />
        </mxCell>
        <mxCell id="7BSBs11hJIYMO0QQD_g5-10" value="" style="endArrow=classic;html=1;rounded=0;" parent="1" source="bNNBikwXs6dmu_kMdXJ--33" target="7BSBs11hJIYMO0QQD_g5-2" edge="1">
          <mxGeometry relative="1" as="geometry">
            <mxPoint x="381.304347826087" y="660" as="sourcePoint" />
            <mxPoint x="388.695652173913" y="830" as="targetPoint" />
          </mxGeometry>
        </mxCell>
        <mxCell id="7BSBs11hJIYMO0QQD_g5-11" value="UPDATE" style="edgeLabel;resizable=0;html=1;align=center;verticalAlign=middle;" parent="7BSBs11hJIYMO0QQD_g5-10" connectable="0" vertex="1">
          <mxGeometry relative="1" as="geometry" />
        </mxCell>
        <mxCell id="7BSBs11hJIYMO0QQD_g5-12" value="" style="endArrow=classic;html=1;rounded=0;" parent="1" source="bNNBikwXs6dmu_kMdXJ--32" target="7BSBs11hJIYMO0QQD_g5-3" edge="1">
          <mxGeometry relative="1" as="geometry">
            <mxPoint x="391.304347826087" y="670" as="sourcePoint" />
            <mxPoint x="398.695652173913" y="840" as="targetPoint" />
          </mxGeometry>
        </mxCell>
        <mxCell id="7BSBs11hJIYMO0QQD_g5-13" value="UPDATE" style="edgeLabel;resizable=0;html=1;align=center;verticalAlign=middle;" parent="7BSBs11hJIYMO0QQD_g5-12" connectable="0" vertex="1">
          <mxGeometry relative="1" as="geometry" />
        </mxCell>
        <mxCell id="7BSBs11hJIYMO0QQD_g5-14" value="" style="endArrow=classic;html=1;rounded=0;" parent="1" source="bNNBikwXs6dmu_kMdXJ--33" target="7BSBs11hJIYMO0QQD_g5-3" edge="1">
          <mxGeometry relative="1" as="geometry">
            <mxPoint x="401.304347826087" y="680" as="sourcePoint" />
            <mxPoint x="408.695652173913" y="850" as="targetPoint" />
          </mxGeometry>
        </mxCell>
        <mxCell id="7BSBs11hJIYMO0QQD_g5-15" value="UPDATE" style="edgeLabel;resizable=0;html=1;align=center;verticalAlign=middle;" parent="7BSBs11hJIYMO0QQD_g5-14" connectable="0" vertex="1">
          <mxGeometry relative="1" as="geometry" />
        </mxCell>
        <mxCell id="7BSBs11hJIYMO0QQD_g5-33" value="" style="endArrow=classic;html=1;rounded=0;" parent="1" source="7BSBs11hJIYMO0QQD_g5-1" target="bNNBikwXs6dmu_kMdXJ--23" edge="1">
          <mxGeometry width="50" height="50" relative="1" as="geometry">
            <mxPoint x="780" y="580" as="sourcePoint" />
            <mxPoint x="590" y="340" as="targetPoint" />
          </mxGeometry>
        </mxCell>
        <mxCell id="UOdiJIeDR-8QfvYB2wux-1" value="" style="endArrow=classic;html=1;rounded=0;" edge="1" parent="1" source="7BSBs11hJIYMO0QQD_g5-17" target="bNNBikwXs6dmu_kMdXJ--23">
          <mxGeometry width="50" height="50" relative="1" as="geometry">
            <mxPoint x="710" y="620" as="sourcePoint" />
            <mxPoint x="760" y="570" as="targetPoint" />
          </mxGeometry>
        </mxCell>
      </root>
    </mxGraphModel>
  </diagram>
</mxfile>
